<svg width="428" height="157" viewBox="0 0 428 157" fill="none" xmlns="http://www.w3.org/2000/svg">

    <mask id="mask0_1178_10285" style="mask-type:luminance" maskUnits="userSpaceOnUse" x="0" y="0"
        width="428" height="157">
        <path d="M0 0.807129H427.859V156.807H0V0.807129Z" fill="white" />
    </mask>
    <path
        d="M123.083 82.0986C123.083 76.0413 125.859 71.6195 131.25 68.182C128.146 63.7653 123.573 61.4736 117.531 60.9788C111.651 60.4893 105.281 64.2549 102.995 64.2549C100.542 64.2549 94.9896 61.1455 90.5833 61.1455C81.4375 61.307 71.7969 68.3486 71.7969 82.9163C71.7969 87.1768 72.4531 91.5934 74.0833 96.1768C76.2083 102.234 83.724 116.968 91.5625 116.64C95.6458 116.64 98.5833 113.698 103.974 113.698C109.203 113.698 111.812 116.64 116.385 116.64C124.391 116.64 131.25 103.218 133.208 97.1611C122.594 92.0882 123.083 82.4268 123.083 82.0986ZM113.938 55.2497C118.349 50.0101 117.859 45.0986 117.859 43.3018C113.938 43.6247 109.365 46.083 106.75 49.0309C103.812 52.3018 102.177 56.3955 102.505 60.8174C106.75 61.1455 110.672 59.0153 113.938 55.2497Z"
        fill="white" />
    <path
        d="M176.714 52.0518H167.85L166.152 56.6872H164.084L171.193 37.4111H173.396L180.475 56.6872H178.412L176.714 52.0518ZM176.126 50.4268L172.282 39.8695L168.433 50.4268H176.126ZM189.016 54.7861L194.146 41.432H196.209L190.105 56.6872H187.902L181.798 41.432H183.886L189.016 54.7861ZM197.959 49.0309C197.959 47.4684 198.266 46.0986 198.881 44.9268C199.511 43.734 200.376 42.8174 201.469 42.1872C202.589 41.5361 203.839 41.208 205.235 41.208C206.683 41.208 207.928 41.5413 208.969 42.2132C210.032 42.8851 210.792 43.7445 211.256 44.7861V41.432H213.209V56.6872H211.256V53.307C210.771 54.3486 210.001 55.2184 208.943 55.9059C207.902 56.5778 206.657 56.9111 205.209 56.9111C203.834 56.9111 202.589 56.583 201.469 55.932C200.376 55.2809 199.511 54.3591 198.881 53.1663C198.266 51.9736 197.959 50.5986 197.959 49.0309ZM211.256 49.0622C211.256 47.833 211.006 46.7497 210.506 45.8174C210.001 44.8851 209.313 44.1716 208.438 43.6663C207.584 43.1663 206.636 42.9111 205.6 42.9111C204.521 42.9111 203.553 43.1559 202.699 43.6403C201.844 44.1247 201.167 44.833 200.662 45.7653C200.183 46.6768 199.938 47.7653 199.938 49.0309C199.938 50.2809 200.183 51.3799 200.662 52.3278C201.167 53.2601 201.844 53.9788 202.699 54.4788C203.553 54.9632 204.521 55.208 205.6 55.208C206.636 55.208 207.584 54.9528 208.438 54.4528C209.313 53.9476 210.001 53.2341 210.506 52.3018C211.006 51.3695 211.256 50.2913 211.256 49.0622ZM218.636 38.5518C218.245 38.5518 217.912 38.4163 217.636 38.1351C217.355 37.8538 217.214 37.5101 217.214 37.1038C217.214 36.6924 217.355 36.3538 217.636 36.0934C217.912 35.8174 218.245 35.6768 218.636 35.6768C219.027 35.6768 219.36 35.8174 219.641 36.0934C219.917 36.3538 220.058 36.6924 220.058 37.1038C220.058 37.5101 219.917 37.8538 219.641 38.1351C219.36 38.4163 219.027 38.5518 218.636 38.5518ZM219.615 41.432V56.6872H217.662V41.432H219.615ZM225.985 36.0101V56.6872H224.032V36.0101H225.985ZM229.511 49.0309C229.511 47.4684 229.813 46.0986 230.428 44.9268C231.063 43.734 231.923 42.8174 233.021 42.1872C234.136 41.5361 235.391 41.208 236.787 41.208C238.235 41.208 239.48 41.5413 240.521 42.2132C241.579 42.8851 242.339 43.7445 242.808 44.7861V41.432H244.756V56.6872H242.808V53.307C242.324 54.3486 241.553 55.2184 240.49 55.9059C239.454 56.5778 238.209 56.9111 236.756 56.9111C235.381 56.9111 234.136 56.583 233.021 55.932C231.923 55.2809 231.063 54.3591 230.428 53.1663C229.813 51.9736 229.511 50.5986 229.511 49.0309ZM242.808 49.0622C242.808 47.833 242.553 46.7497 242.053 45.8174C241.553 44.8851 240.865 44.1716 239.99 43.6663C239.136 43.1663 238.188 42.9111 237.146 42.9111C236.068 42.9111 235.105 43.1559 234.251 43.6403C233.391 44.1247 232.714 44.833 232.214 45.7653C231.73 46.6768 231.49 47.7653 231.49 49.0309C231.49 50.2809 231.73 51.3799 232.214 52.3278C232.714 53.2601 233.391 53.9788 234.251 54.4788C235.105 54.9632 236.068 55.208 237.146 55.208C238.188 55.208 239.136 54.9528 239.99 54.4528C240.865 53.9476 241.553 53.2341 242.053 52.3018C242.553 51.3695 242.808 50.2913 242.808 49.0622ZM251.136 44.8122C251.636 43.7497 252.407 42.8851 253.449 42.2132C254.506 41.5413 255.751 41.208 257.183 41.208C258.574 41.208 259.824 41.5361 260.917 42.1872C262.016 42.8174 262.87 43.734 263.48 44.9268C264.115 46.0986 264.428 47.4684 264.428 49.0309C264.428 50.5986 264.115 51.9736 263.48 53.1663C262.87 54.3591 262.006 55.2809 260.891 55.932C259.792 56.583 258.558 56.9111 257.183 56.9111C255.735 56.9111 254.48 56.583 253.417 55.932C252.381 55.2601 251.615 54.3955 251.136 53.333V56.6872H249.209V36.0101H251.136V44.8122ZM262.449 49.0309C262.449 47.7653 262.199 46.6768 261.699 45.7653C261.214 44.833 260.548 44.1247 259.693 43.6403C258.834 43.1559 257.87 42.9111 256.792 42.9111C255.751 42.9111 254.792 43.1663 253.923 43.6663C253.068 44.1716 252.386 44.8851 251.886 45.8174C251.386 46.7497 251.136 47.833 251.136 49.0622C251.136 50.2913 251.386 51.3695 251.886 52.3018C252.386 53.2341 253.068 53.9476 253.923 54.4528C254.792 54.9528 255.751 55.208 256.792 55.208C257.87 55.208 258.834 54.9632 259.693 54.4788C260.548 53.9788 261.214 53.2601 261.699 52.3278C262.199 51.3799 262.449 50.2809 262.449 49.0309ZM269.969 36.0101V56.6872H268.021V36.0101H269.969ZM288.162 48.2757C288.162 48.9476 288.141 49.458 288.105 49.8122H275.475C275.532 50.9684 275.813 51.958 276.313 52.7757C276.813 53.5934 277.475 54.2184 278.292 54.6455C279.11 55.057 280.001 55.2601 280.969 55.2601C282.23 55.2601 283.292 54.9528 284.146 54.3382C285.021 53.7236 285.594 52.8955 285.876 51.8538H287.938C287.563 53.3434 286.766 54.5622 285.542 55.5153C284.334 56.4476 282.808 56.9111 280.969 56.9111C279.537 56.9111 278.256 56.5934 277.12 55.9632C275.99 55.307 275.094 54.3955 274.443 53.2236C273.813 52.0309 273.501 50.6455 273.501 49.0622C273.501 47.4788 273.813 46.0882 274.443 44.8955C275.079 43.7028 275.959 42.7913 277.094 42.1611C278.23 41.5257 279.521 41.208 280.969 41.208C282.417 41.208 283.683 41.5257 284.761 42.1611C285.855 42.7913 286.693 43.6507 287.266 44.7288C287.865 45.7913 288.162 46.9736 288.162 48.2757ZM286.183 48.2236C286.199 47.083 285.969 46.1143 285.485 45.3174C285.021 44.5153 284.381 43.9111 283.563 43.4997C282.745 43.0882 281.85 42.8851 280.886 42.8851C279.433 42.8851 278.199 43.3486 277.178 44.2809C276.157 45.2132 275.589 46.5257 275.475 48.2236H286.183ZM306.516 41.1507C308.334 41.1507 309.824 41.7184 310.975 42.859C312.126 43.9736 312.704 45.6038 312.704 47.7445V56.6872H310.782V47.9684C310.782 46.3122 310.36 45.0465 309.527 44.1715C308.709 43.2965 307.584 42.859 306.152 42.859C304.683 42.859 303.516 43.3226 302.641 44.2549C301.766 45.1872 301.329 46.557 301.329 48.359V56.6872H299.381V41.432H301.329V44.0309C301.813 43.0986 302.511 42.3903 303.423 41.9059C304.334 41.4059 305.365 41.1507 306.516 41.1507ZM323.683 56.9111C322.251 56.9111 320.959 56.5934 319.808 55.9632C318.673 55.307 317.771 54.3955 317.105 53.2236C316.454 52.0309 316.126 50.6455 316.126 49.0622C316.126 47.4788 316.464 46.0986 317.131 44.9268C317.798 43.734 318.709 42.8174 319.86 42.1872C321.016 41.5361 322.308 41.208 323.735 41.208C325.167 41.208 326.459 41.5361 327.61 42.1872C328.782 42.8174 329.693 43.734 330.344 44.9268C331.011 46.0986 331.344 47.4788 331.344 49.0622C331.344 50.6247 331.011 52.0049 330.344 53.1976C329.673 54.3851 328.756 55.307 327.584 55.9632C326.412 56.5934 325.11 56.9111 323.683 56.9111ZM323.683 55.208C324.683 55.208 325.615 54.9841 326.469 54.5361C327.324 54.0726 328.011 53.3799 328.532 52.4684C329.068 51.5361 329.339 50.4007 329.339 49.0622C329.339 47.7184 329.079 46.5934 328.558 45.6768C328.037 44.7497 327.35 44.057 326.495 43.609C325.641 43.1455 324.714 42.9111 323.709 42.9111C322.704 42.9111 321.777 43.1455 320.923 43.609C320.068 44.057 319.381 44.7497 318.86 45.6768C318.355 46.5934 318.105 47.7184 318.105 49.0622C318.105 50.4007 318.355 51.5361 318.86 52.4684C319.381 53.3799 320.058 54.0726 320.891 54.5361C321.751 54.9841 322.678 55.208 323.683 55.208ZM354.975 41.432L350.204 56.6872H348.256L344.048 43.8903L339.839 56.6872H337.86L333.089 41.432H335.068L338.86 54.7028L343.126 41.432H345.079L349.287 54.7341L353.048 41.432H354.975Z"
        fill="white" />
    <path
        d="M183.615 106.073H170.906L168.562 112.568H164.547L175.083 83.5259H179.474L189.969 112.568H185.958L183.615 106.073ZM182.526 102.969L177.26 88.2186L171.99 102.969H182.526ZM198.365 93.8332C199.12 92.5207 200.234 91.4321 201.714 90.5675C203.219 89.6717 204.958 89.2238 206.938 89.2238C208.974 89.2238 210.812 89.7134 212.458 90.6925C214.13 91.6665 215.438 93.0519 216.385 94.8384C217.333 96.5988 217.807 98.6561 217.807 101C217.807 103.318 217.333 105.385 216.385 107.203C215.438 109.021 214.13 110.432 212.458 111.437C210.812 112.443 208.974 112.948 206.938 112.948C204.99 112.948 203.26 112.51 201.755 111.646C200.276 110.75 199.146 109.651 198.365 108.333V123.463H194.562V89.604H198.365V93.8332ZM213.922 101C213.922 99.2707 213.573 97.7603 212.875 96.4738C212.177 95.1873 211.229 94.2134 210.031 93.5415C208.859 92.8696 207.568 92.5363 206.146 92.5363C204.75 92.5363 203.453 92.8853 202.255 93.5832C201.083 94.255 200.135 95.2446 199.411 96.5571C198.714 97.8436 198.365 99.3384 198.365 101.042C198.365 102.776 198.714 104.297 199.411 105.609C200.135 106.896 201.083 107.89 202.255 108.588C203.453 109.255 204.75 109.594 206.146 109.594C207.568 109.594 208.859 109.255 210.031 108.588C211.229 107.89 212.177 106.896 212.875 105.609C213.573 104.297 213.922 102.76 213.922 101ZM226.625 93.8332C227.375 92.5207 228.49 91.4321 229.969 90.5675C231.474 89.6717 233.214 89.2238 235.193 89.2238C237.229 89.2238 239.068 89.7134 240.714 90.6925C242.385 91.6665 243.693 93.0519 244.641 94.8384C245.589 96.5988 246.062 98.6561 246.062 101C246.062 103.318 245.589 105.385 244.641 107.203C243.693 109.021 242.385 110.432 240.714 111.437C239.068 112.443 237.229 112.948 235.193 112.948C233.24 112.948 231.516 112.51 230.01 111.646C228.531 110.75 227.401 109.651 226.625 108.333V123.463H222.818V89.604H226.625V93.8332ZM242.177 101C242.177 99.2707 241.828 97.7603 241.13 96.4738C240.432 95.1873 239.484 94.2134 238.286 93.5415C237.115 92.8696 235.823 92.5363 234.401 92.5363C233.005 92.5363 231.708 92.8853 230.51 93.5832C229.339 94.255 228.391 95.2446 227.667 96.5571C226.969 97.8436 226.625 99.3384 226.625 101.042C226.625 102.776 226.969 104.297 227.667 105.609C228.391 106.896 229.339 107.89 230.51 108.588C231.708 109.255 233.005 109.594 234.401 109.594C235.823 109.594 237.115 109.255 238.286 108.588C239.484 107.89 240.432 106.896 241.13 105.609C241.828 104.297 242.177 102.76 242.177 101ZM271.458 112.859C269.536 112.859 267.807 112.526 266.276 111.854C264.771 111.156 263.583 110.208 262.724 109.005C261.859 107.776 261.411 106.364 261.385 104.771H265.438C265.578 106.14 266.135 107.302 267.109 108.25C268.115 109.172 269.562 109.635 271.458 109.635C273.271 109.635 274.693 109.187 275.724 108.292C276.786 107.37 277.312 106.198 277.312 104.771C277.312 103.656 277.005 102.75 276.396 102.047C275.781 101.349 275.016 100.818 274.094 100.458C273.177 100.094 271.932 99.703 270.375 99.2811C268.448 98.7811 266.901 98.2759 265.734 97.7759C264.589 97.2707 263.599 96.4894 262.766 95.4269C261.953 94.3384 261.552 92.8853 261.552 91.0675C261.552 89.4738 261.953 88.0623 262.766 86.8332C263.573 85.604 264.703 84.6561 266.151 83.9842C267.625 83.3123 269.312 82.979 271.208 82.979C273.943 82.979 276.172 83.6665 277.901 85.0311C279.656 86.4009 280.646 88.2186 280.87 90.479H276.688C276.547 89.3644 275.964 88.3853 274.932 87.5467C273.901 86.6821 272.531 86.2498 270.833 86.2498C269.245 86.2498 267.948 86.6665 266.943 87.505C265.943 88.3175 265.438 89.4634 265.438 90.9425C265.438 92.005 265.734 92.8696 266.318 93.5415C266.932 94.2134 267.672 94.729 268.531 95.0936C269.427 95.4269 270.667 95.8175 272.255 96.2655C274.177 96.7967 275.724 97.328 276.896 97.8592C278.068 98.3592 279.068 99.1561 279.906 100.245C280.745 101.307 281.161 102.76 281.161 104.604C281.161 106.031 280.786 107.37 280.031 108.63C279.281 109.885 278.161 110.906 276.688 111.687C275.208 112.469 273.469 112.859 271.458 112.859ZM291.401 92.7446V106.281C291.401 107.401 291.641 108.198 292.115 108.672C292.589 109.12 293.411 109.344 294.578 109.344H297.38V112.568H293.953C291.833 112.568 290.245 112.078 289.188 111.104C288.125 110.125 287.599 108.515 287.599 106.281V92.7446H284.63V89.604H287.599V83.8175H291.401V89.604H297.38V92.7446H291.401ZM311.984 112.948C309.839 112.948 307.885 112.458 306.13 111.479C304.401 110.5 303.036 109.12 302.031 107.328C301.057 105.515 300.568 103.417 300.568 101.042C300.568 98.6978 301.068 96.63 302.073 94.8384C303.104 93.0259 304.5 91.6405 306.255 90.6925C308.01 89.7134 309.974 89.2238 312.151 89.2238C314.323 89.2238 316.292 89.7134 318.047 90.6925C319.802 91.6405 321.182 93.0103 322.182 94.7967C323.214 96.5884 323.729 98.6665 323.729 101.042C323.729 103.417 323.203 105.515 322.141 107.328C321.109 109.12 319.703 110.5 317.922 111.479C316.135 112.458 314.156 112.948 311.984 112.948ZM311.984 109.594C313.349 109.594 314.63 109.271 315.828 108.63C317.026 107.984 317.99 107.021 318.714 105.739C319.469 104.453 319.844 102.885 319.844 101.042C319.844 99.1978 319.479 97.6353 318.755 96.3488C318.031 95.0623 317.083 94.1144 315.911 93.4998C314.745 92.854 313.474 92.5363 312.109 92.5363C310.714 92.5363 309.432 92.854 308.26 93.4998C307.12 94.1144 306.198 95.0623 305.5 96.3488C304.807 97.6353 304.458 99.1978 304.458 101.042C304.458 102.917 304.792 104.495 305.458 105.781C306.156 107.062 307.078 108.026 308.219 108.672C309.365 109.286 310.615 109.594 311.984 109.594ZM332.542 93.3332C333.208 92.0207 334.156 90.9998 335.385 90.2707C336.635 89.5467 338.156 89.1821 339.943 89.1821V93.1196H338.938C334.672 93.1196 332.542 95.4425 332.542 100.078V112.568H328.734V89.604H332.542V93.3332ZM365.24 100.203C365.24 100.932 365.198 101.698 365.115 102.51H346.802C346.938 104.771 347.708 106.547 349.099 107.833C350.521 109.088 352.234 109.719 354.245 109.719C355.885 109.719 357.255 109.344 358.339 108.588C359.453 107.802 360.234 106.771 360.682 105.484H364.781C364.167 107.693 362.938 109.495 361.099 110.89C359.26 112.26 356.974 112.948 354.245 112.948C352.068 112.948 350.12 112.458 348.391 111.479C346.688 110.5 345.349 109.12 344.375 107.328C343.401 105.515 342.911 103.417 342.911 101.042C342.911 98.6665 343.385 96.5884 344.333 94.7967C345.281 93.0103 346.604 91.6405 348.307 90.6925C350.031 89.7134 352.01 89.2238 354.245 89.2238C356.417 89.2238 358.339 89.6978 360.01 90.6509C361.688 91.5988 362.969 92.9113 363.859 94.5884C364.781 96.2394 365.24 98.1092 365.24 100.203ZM361.307 99.4061C361.307 97.953 360.99 96.7134 360.349 95.6769C359.708 94.6144 358.828 93.8228 357.714 93.2915C356.625 92.729 355.411 92.453 354.073 92.453C352.151 92.453 350.505 93.0675 349.141 94.2967C347.802 95.5259 347.036 97.229 346.844 99.4061H361.307Z"
        fill="white" />
</svg>
